<?xml version="1.0" standalone="no"?>
<!DOCTYPE svg PUBLIC "-//W3C//DTD SVG 20010904//EN"
 "http://www.w3.org/TR/2001/REC-SVG-20010904/DTD/svg10.dtd">
<svg version="1.0" xmlns="http://www.w3.org/2000/svg"
 width="700.000000pt" height="700.000000pt" viewBox="0 0 700.000000 700.000000"
 preserveAspectRatio="xMidYMid meet">
<metadata>
Created by potrace 1.14, written by Peter Selinger 2001-2017
</metadata>
<g transform="translate(0.000000,700.000000) scale(0.100000,-0.100000)"
fill="#000000" stroke="none">
<path d="M0 3500 l0 -3500 3500 0 3500 0 0 3500 0 3500 -3500 0 -3500 0 0
-3500z m6508 1966 c58 -40 76 -92 69 -199 -12 -192 -141 -469 -299 -643 -71
-78 -195 -197 -323 -309 -33 -29 -151 -116 -263 -195 -197 -138 -204 -144
-228 -199 -78 -174 -157 -461 -204 -736 -42 -248 -54 -377 -54 -590 -1 -219
11 -280 69 -343 31 -35 37 -37 92 -37 68 1 127 29 223 107 l61 49 62 -47 c34
-26 66 -51 70 -55 13 -11 -52 -106 -124 -184 -131 -139 -260 -205 -403 -205
-94 0 -156 22 -210 74 -98 95 -137 237 -144 511 -7 334 55 716 194 1189 19 65
33 120 31 122 -2 2 -49 -16 -104 -40 -214 -95 -375 -132 -533 -123 -223 14
-352 98 -421 275 -31 80 -38 280 -14 407 53 286 212 592 473 905 74 88 262
290 271 290 6 0 106 -116 139 -162 12 -17 4 -29 -90 -126 -182 -190 -302 -384
-385 -627 -36 -105 -38 -116 -38 -240 0 -122 2 -133 28 -187 36 -74 119 -150
195 -178 153 -58 325 -28 559 99 60 32 63 36 89 105 175 470 377 815 616 1055
196 198 328 272 474 268 70 -2 86 -6 122 -31z m-4330 -5 c494 -75 912 -289
1263 -648 391 -398 528 -885 407 -1442 -109 -508 -473 -890 -978 -1026 -179
-48 -282 -55 -773 -55 -494 0 -559 5 -594 45 -40 46 -32 92 43 245 174 355
292 655 387 986 20 66 38 136 42 156 l7 35 -124 6 c-343 17 -726 169 -1004
399 -124 102 -215 227 -255 350 -20 61 -24 92 -23 188 0 98 4 127 28 194 36
106 68 157 150 244 176 185 449 302 797 341 132 15 473 5 627 -18z"/>
<path d="M6122 5112 c-47 -26 -116 -96 -163 -166 -49 -73 -294 -565 -285 -573
9 -9 194 144 291 241 100 101 231 269 272 349 29 57 35 126 13 151 -17 21 -86
20 -128 -2z"/>
<path d="M1516 5260 c-241 -52 -403 -194 -446 -391 -18 -81 -9 -249 18 -322
91 -251 387 -460 758 -536 166 -33 172 -34 178 -14 13 43 109 474 141 638 20
99 38 182 40 184 3 2 70 -2 151 -9 l147 -14 -7 -105 c-12 -190 -70 -516 -122
-693 -7 -24 23 -23 241 2 241 28 221 31 230 -37 3 -32 9 -68 12 -79 4 -18 -2
-24 -29 -33 -37 -11 -248 -52 -412 -79 l-108 -17 -102 -300 c-100 -291 -199
-552 -270 -709 -24 -53 -31 -78 -23 -81 34 -10 367 -27 627 -32 335 -6 377 0
510 65 55 27 96 57 156 117 68 68 89 97 133 185 28 58 63 150 78 205 26 95 27
112 27 340 1 213 -2 253 -22 354 -107 528 -451 979 -927 1216 -241 120 -391
155 -685 161 -176 3 -218 1 -294 -16z"/>
</g>
</svg>
